<?xml version="1.0" encoding="UTF-8" standalone="no"?>
<svg id="svg2" height="64" viewBox="0 0 157 64" width="157" version="1.1"
     xmlns="http://www.w3.org/2000/svg" xmlns:xlink="http://www.w3.org/1999/xlink">
  <defs id="defs15">
    <style type="text/css" id="current-color-scheme">
      .ColorScheme-Text { color:#2e3440; stop-color:#2e3440; }
      .ColorScheme-Background { color:#2e3440; stop-color:#2e3440; }
    </style>
  </defs>
  <!-- Center tile -->
  <g id="center" transform="translate(12,22)">
    <rect height="30" width="32" style="fill:#2e3440"/>
  </g>
  <!-- Edge tiles -->
  <g id="top" transform="translate(12,10)">
    <rect height="12" width="32" style="fill:#2e3440"/>
  </g>
  <g id="bottom" transform="translate(12,52)">
    <rect height="12" width="32" style="fill:#2e3440"/>
  </g>
  <g id="left" transform="translate(0,22)">
    <rect height="30" width="12" style="fill:#2e3440"/>
  </g>
  <g id="right" transform="translate(145,22)">
    <rect height="30" width="12" style="fill:#2e3440"/>
  </g>
  <!-- Corners -->
  <g id="topleft" transform="translate(0,10)">
    <path d="M 0,12 H 12 V 0 C 4,0 0,4 0,12 Z" style="fill:#2e3440"/>
  </g>
  <g id="topright" transform="translate(145,10)">
    <path d="M 0,0 V 12 H 12 C 12,4 8,0 0,0 Z" style="fill:#2e3440"/>
  </g>
  <g id="bottomleft" transform="translate(0,52)">
    <path d="M 12,12 V 0 H 0 c 0,8 4,12 12,12 z" style="fill:#2e3440"/>
  </g>
  <g id="bottomright" transform="translate(145,52)">
    <path d="M 0,12 V 0 H 12 C 12,8 8,12 0,12 Z" style="fill:#2e3440"/>
  </g>
  <!-- Hints -->
  <rect id="hint-top-margin" height="4" style="fill:#ff00ff" width="4" x="20" y="10"/>
  <rect id="hint-bottom-margin" height="4" style="fill:#ff00ff" width="4" x="20" y="54"/>
  <rect id="hint-left-margin" height="4" style="fill:#ff00ff" width="4" x="0" y="30"/>
  <rect id="hint-right-margin" height="4" style="fill:#ff00ff" width="4" x="40" y="30"/>
  <rect id="hint-tile-center" height="5" style="fill:#ff6600" width="5" x="0" y="0"/>
</svg>
